# Made in Blockbench 4.6.0
mtllib Commander.mtl

o cylinder
v 0 0 0
v 0 0.125 0
v 0.13397459621556132 0 0.49999999999999994
v 0.13397459621556132 0.125 0.49999999999999994
v 0.3660254037844386 0 0.36602540378443865
v 0.3660254037844386 0.125 0.36602540378443865
v 0.49999999999999994 0 0.13397459621556132
v 0.49999999999999994 0.125 0.13397459621556132
v 0.49999999999999994 0 -0.13397459621556138
v 0.49999999999999994 0.125 -0.13397459621556138
v 0.36602540378443865 0 -0.3660254037844386
v 0.36602540378443865 0.125 -0.3660254037844386
v 0.1339745962155615 0 -0.4999999999999999
v 0.1339745962155615 0.125 -0.4999999999999999
v -0.13397459621556113 0 -0.5
v -0.13397459621556113 0.125 -0.5
v -0.3660254037844386 0 -0.3660254037844387
v -0.3660254037844386 0.125 -0.3660254037844387
v -0.49999999999999994 0 -0.13397459621556126
v -0.49999999999999994 0.125 -0.13397459621556126
v -0.5 0 0.1339745962155611
v -0.5 0.125 0.1339745962155611
v -0.3660254037844387 0 0.36602540378443854
v -0.3660254037844387 0.125 0.36602540378443854
v -0.1339745962155613 0 0.49999999999999994
v -0.1339745962155613 0.125 0.49999999999999994
vt 0.5176375191676121 0.7411812404161939
vt 0.44828802160274145 1
vt 0 0.7411812404161939
vt 0 0.5
vt 0.26795 0.5
vt 0.26795 1
vt 0 1
vt 0 0.48236180528770867
vt 0.2588184218119073 0.5517125634363665
vt 8.326672684688674e-17 1
vt 0.5176381947122913 0.7411815781880927
vt 0.44828743656363346 1
vt 0 0.7411815781880928
vt 0 0.5
vt 0.26795 0.5
vt 0.26795 1
vt 0 1
vt 5.551115123125783e-17 0.48236248083238786
vt 0.25881875958380607 0.5517119783972586
vt 0 1
vt 0.5 0.73205
vt 0.5 1
vt 0 0.866025
vt 0 0.5
vt 0.26795 0.5
vt 0.26795 1
vt 0 1
vt 0.5 0.73205
vt 0.5 1
vt 0 0.866025
vt 5.551115123125783e-17 0.48236248083238786
vt 0.25881875958380607 0.5517119783972586
vt 0 1
vt 0 0.5
vt 0.26795 0.5
vt 0.26795 1
vt 0 1
vt 0.5176381947122913 0.7411815781880927
vt 0.44828743656363346 1
vt 0 0.7411815781880928
vt 0 0.48236180528770867
vt 0.2588184218119073 0.5517125634363665
vt 8.326672684688674e-17 1
vt 0 0.5
vt 0.26795 0.5
vt 0.26795 1
vt 0 1
vt 0.5176375191676121 0.7411812404161939
vt 0.44828802160274145 1
vt 0 0.7411812404161939
vt 0 0.5
vt 0.26795 0.5
vt 0.133975 1
vt 0 0.5
vt 0.26795 0.5
vt 0.26795 1
vt 0 1
vt 0.26795 1
vt 0 1
vt 0.133975 0.5
vt 0 1
vt 0.06934949756487069 0.7411812404161939
vt 0.5176375191676121 1
vt 0 0.5
vt 0.26795 0.5
vt 0.26795 1
vt 0 1
vt 0.2588184218119073 1
vt 0 0.9306492418513421
vt 0.2588184218119072 0.48236180528770867
vt 0 1
vt 0.06935075814865788 0.7411815781880927
vt 0.5176381947122913 0.9999999999999999
vt 0 0.5
vt 0.26795 0.5
vt 0.26795 1
vt 0 1
vt 0.258818759583806 1
vt 0 0.9306505024351293
vt 0.25881875958380607 0.48236248083238786
vt 0 1
vt 0 0.73205
vt 0.5 0.866025
vt 0 0.5
vt 0.26795 0.5
vt 0.26795 1
vt 0 1
vt 0 1
vt 0 0.73205
vt 0.5 0.866025
vt 0.258818759583806 1
vt 0 0.9306505024351293
vt 0.25881875958380607 0.48236248083238786
vt 0 0.5
vt 0.26795 0.5
vt 0.26795 1
vt 0 1
vt 0 1
vt 0.06935075814865788 0.7411815781880927
vt 0.5176381947122913 0.9999999999999999
vt 0.2588184218119073 1
vt 0 0.9306492418513421
vt 0.2588184218119072 0.48236180528770867
vt 0 0.5
vt 0.26795 0.5
vt 0.26795 1
vt 0 1
vt 0 1
vt 0.06934949756487069 0.7411812404161939
vt 0.5176375191676121 1
vt 0.26795 1
vt 0 1
vt 0.133975 0.5
vt 0 0.5
vt 0.26795 0.5
vt 0.26795 1
vt 0 1
vt 0 0.5
vt 0.26795 0.5
vt 0.133975 1
vn 0 -1 0
vn 0.4999999999999999 0 0.8660254037844388
vn 0 1 0
vn 0 -1 0
vn 0.8660254037844388 0 0.5
vn 0 1 0
vn 0 -1 0
vn 1 0 0
vn 0 1 0
vn 0 -1 0
vn 0.8660254037844388 0 -0.5
vn 0 1 0
vn 0 -1 0
vn 0.5000000000000001 0 -0.8660254037844388
vn 0 1 0
vn 0 -1 0
vn 4.143408735633879e-16 0 -1
vn 0 1 0
vn 0 -1 0
vn -0.4999999999999996 0 -0.8660254037844389
vn 0 1 0
vn 0 -1 0
vn -0.8660254037844389 0 -0.4999999999999998
vn 0 1 0
vn 0 -1 0
vn -1 0 -2.0717043678169412e-16
vn 0 1 0
vn 0 -1 0
vn -0.8660254037844389 0 0.4999999999999996
vn 0 1 0
vn 0 -1 0
vn -0.4999999999999999 0 0.8660254037844386
vn 0 1 0
vn 0 -1 0
vn 0 0 1
vn 0 1 0
usemtl none
f 5/1/1 3/2/1 1/3/1
f 3/4/2 5/5/2 6/6/2 4/7/2
f 4/8/3 6/9/3 2/10/3
f 7/11/4 5/12/4 1/13/4
f 5/14/5 7/15/5 8/16/5 6/17/5
f 6/18/6 8/19/6 2/20/6
f 9/21/7 7/22/7 1/23/7
f 7/24/8 9/25/8 10/26/8 8/27/8
f 8/28/9 10/29/9 2/30/9
f 11/31/10 9/32/10 1/33/10
f 9/34/11 11/35/11 12/36/11 10/37/11
f 10/38/12 12/39/12 2/40/12
f 13/41/13 11/42/13 1/43/13
f 11/44/14 13/45/14 14/46/14 12/47/14
f 12/48/15 14/49/15 2/50/15
f 15/51/16 13/52/16 1/53/16
f 13/54/17 15/55/17 16/56/17 14/57/17
f 14/58/18 16/59/18 2/60/18
f 17/61/19 15/62/19 1/63/19
f 15/64/20 17/65/20 18/66/20 16/67/20
f 16/68/21 18/69/21 2/70/21
f 19/71/22 17/72/22 1/73/22
f 17/74/23 19/75/23 20/76/23 18/77/23
f 18/78/24 20/79/24 2/80/24
f 21/81/25 19/82/25 1/83/25
f 19/84/26 21/85/26 22/86/26 20/87/26
f 20/88/27 22/89/27 2/90/27
f 23/91/28 21/92/28 1/93/28
f 21/94/29 23/95/29 24/96/29 22/97/29
f 22/98/30 24/99/30 2/100/30
f 25/101/31 23/102/31 1/103/31
f 23/104/32 25/105/32 26/106/32 24/107/32
f 24/108/33 26/109/33 2/110/33
f 3/111/34 25/112/34 1/113/34
f 25/114/35 3/115/35 4/116/35 26/117/35
f 26/118/36 4/119/36 2/120/36
o cube
v 0.125 0.5 0.0625
v 0.125 0.5 -0.0625
v 0.125 0.125 0.0625
v 0.125 0.125 -0.0625
v 0 0.5 -0.0625
v 0 0.5 0.0625
v 0 0.125 -0.0625
v 0 0.125 0.0625
vt 0 1
vt 0.125 1
vt 0.125 0.625
vt 0 0.625
vt 0 1
vt 0.125 1
vt 0.125 0.625
vt 0 0.625
vt 0 1
vt 0.125 1
vt 0.125 0.625
vt 0 0.625
vt 0 1
vt 0.125 1
vt 0.125 0.625
vt 0 0.625
vt 0 1
vt 0.125 1
vt 0.125 0.875
vt 0 0.875
vt 0 1
vt 0.125 1
vt 0.125 0.875
vt 0 0.875
vn 0 0 -1
vn 1 0 0
vn 0 0 1
vn -1 0 0
vn 0 1 0
vn 0 -1 0
usemtl none
f 30/124/37 33/123/37 31/122/37 28/121/37
f 29/128/38 30/127/38 28/126/38 27/125/38
f 34/132/39 29/131/39 27/130/39 32/129/39
f 33/136/40 34/135/40 32/134/40 31/133/40
f 32/140/41 27/139/41 28/138/41 31/137/41
f 33/144/42 30/143/42 29/142/42 34/141/42
o cube
v 0 0.5 0.0625
v 0 0.5 -0.0625
v 0 0.125 0.0625
v 0 0.125 -0.0625
v -0.125 0.5 -0.0625
v -0.125 0.5 0.0625
v -0.125 0.125 -0.0625
v -0.125 0.125 0.0625
vt 0 1
vt 0.125 1
vt 0.125 0.625
vt 0 0.625
vt 0 1
vt 0.125 1
vt 0.125 0.625
vt 0 0.625
vt 0 1
vt 0.125 1
vt 0.125 0.625
vt 0 0.625
vt 0 1
vt 0.125 1
vt 0.125 0.625
vt 0 0.625
vt 0 1
vt 0.125 1
vt 0.125 0.875
vt 0 0.875
vt 0 1
vt 0.125 1
vt 0.125 0.875
vt 0 0.875
vn 0 0 -1
vn 1 0 0
vn 0 0 1
vn -1 0 0
vn 0 1 0
vn 0 -1 0
usemtl none
f 38/148/43 41/147/43 39/146/43 36/145/43
f 37/152/44 38/151/44 36/150/44 35/149/44
f 42/156/45 37/155/45 35/154/45 40/153/45
f 41/160/46 42/159/46 40/158/46 39/157/46
f 40/164/47 35/163/47 36/162/47 39/161/47
f 41/168/48 38/167/48 37/166/48 42/165/48
o cube
v 0.125 0.875 0.0625
v 0.125 0.875 -0.0625
v 0.125 0.5 0.0625
v 0.125 0.5 -0.0625
v -0.125 0.875 -0.0625
v -0.125 0.875 0.0625
v -0.125 0.5 -0.0625
v -0.125 0.5 0.0625
vt 0 1
vt 0.25 1
vt 0.25 0.625
vt 0 0.625
vt 0 1
vt 0.125 1
vt 0.125 0.625
vt 0 0.625
vt 0 1
vt 0.25 1
vt 0.25 0.625
vt 0 0.625
vt 0 1
vt 0.125 1
vt 0.125 0.625
vt 0 0.625
vt 0 1
vt 0.25 1
vt 0.25 0.875
vt 0 0.875
vt 0 1
vt 0.25 1
vt 0.25 0.875
vt 0 0.875
vn 0 0 -1
vn 1 0 0
vn 0 0 1
vn -1 0 0
vn 0 1 0
vn 0 -1 0
usemtl none
f 46/172/49 49/171/49 47/170/49 44/169/49
f 45/176/50 46/175/50 44/174/50 43/173/50
f 50/180/51 45/179/51 43/178/51 48/177/51
f 49/184/52 50/183/52 48/182/52 47/181/52
f 48/188/53 43/187/53 44/186/53 47/185/53
f 49/192/54 46/191/54 45/190/54 50/189/54
o cube
v -0.125 0.875 0.0625
v -0.125 0.875 -0.0625
v -0.125 0.5 0.0625
v -0.125 0.5 -0.0625
v -0.25 0.875 -0.0625
v -0.25 0.875 0.0625
v -0.25 0.5 -0.0625
v -0.25 0.5 0.0625
vt 0 1
vt 0.125 1
vt 0.125 0.625
vt 0 0.625
vt 0 1
vt 0.125 1
vt 0.125 0.625
vt 0 0.625
vt 0 1
vt 0.125 1
vt 0.125 0.625
vt 0 0.625
vt 0 1
vt 0.125 1
vt 0.125 0.625
vt 0 0.625
vt 0 1
vt 0.125 1
vt 0.125 0.875
vt 0 0.875
vt 0 1
vt 0.125 1
vt 0.125 0.875
vt 0 0.875
vn 0 0 -1
vn 1 0 0
vn 0 0 1
vn -1 0 0
vn 0 1 0
vn 0 -1 0
usemtl none
f 54/196/55 57/195/55 55/194/55 52/193/55
f 53/200/56 54/199/56 52/198/56 51/197/56
f 58/204/57 53/203/57 51/202/57 56/201/57
f 57/208/58 58/207/58 56/206/58 55/205/58
f 56/212/59 51/211/59 52/210/59 55/209/59
f 57/216/60 54/215/60 53/214/60 58/213/60
o cube
v 0.125 1.125 0.125
v 0.125 1.125 -0.125
v 0.125 0.875 0.125
v 0.125 0.875 -0.125
v -0.125 1.125 -0.125
v -0.125 1.125 0.125
v -0.125 0.875 -0.125
v -0.125 0.875 0.125
vt 0 1
vt 0.25 1
vt 0.25 0.75
vt 0 0.75
vt 0 1
vt 0.25 1
vt 0.25 0.75
vt 0 0.75
vt 0 1
vt 0.25 1
vt 0.25 0.75
vt 0 0.75
vt 0 1
vt 0.25 1
vt 0.25 0.75
vt 0 0.75
vt 0 1
vt 0.25 1
vt 0.25 0.75
vt 0 0.75
vt 0 1
vt 0.25 1
vt 0.25 0.75
vt 0 0.75
vn 0 0 -1
vn 1 0 0
vn 0 0 1
vn -1 0 0
vn 0 1 0
vn 0 -1 0
usemtl none
f 62/220/61 65/219/61 63/218/61 60/217/61
f 61/224/62 62/223/62 60/222/62 59/221/62
f 66/228/63 61/227/63 59/226/63 64/225/63
f 65/232/64 66/231/64 64/230/64 63/229/64
f 64/236/65 59/235/65 60/234/65 63/233/65
f 65/240/66 62/239/66 61/238/66 66/237/66
o cube
v -0.03125 1 -0.125
v -0.03125 1 -0.15625
v -0.03125 0.875 -0.125
v -0.03125 0.875 -0.15625
v -0.125 1 -0.15625
v -0.125 1 -0.125
v -0.125 0.875 -0.15625
v -0.125 0.875 -0.125
vt 0 1
vt 0.09375 1
vt 0.09375 0.875
vt 0 0.875
vt 0 1
vt 0.03125 1
vt 0.03125 0.875
vt 0 0.875
vt 0 1
vt 0.09375 1
vt 0.09375 0.875
vt 0 0.875
vt 0 1
vt 0.03125 1
vt 0.03125 0.875
vt 0 0.875
vt 0 1
vt 0.09375 1
vt 0.09375 0.96875
vt 0 0.96875
vt 0 1
vt 0.09375 1
vt 0.09375 0.96875
vt 0 0.96875
vn 0 0 -1
vn 1 0 0
vn 0 0 1
vn -1 0 0
vn 0 1 0
vn 0 -1 0
usemtl none
f 70/244/67 73/243/67 71/242/67 68/241/67
f 69/248/68 70/247/68 68/246/68 67/245/68
f 74/252/69 69/251/69 67/250/69 72/249/69
f 73/256/70 74/255/70 72/254/70 71/253/70
f 72/260/71 67/259/71 68/258/71 71/257/71
f 73/264/72 70/263/72 69/262/72 74/261/72
o cube
v 0.125 1 -0.125
v 0.125 1 -0.15625
v 0.125 0.875 -0.125
v 0.125 0.875 -0.15625
v 0.03125 1 -0.15625
v 0.03125 1 -0.125
v 0.03125 0.875 -0.15625
v 0.03125 0.875 -0.125
vt 0 1
vt 0.09375 1
vt 0.09375 0.875
vt 0 0.875
vt 0 1
vt 0.03125 1
vt 0.03125 0.875
vt 0 0.875
vt 0 1
vt 0.09375 1
vt 0.09375 0.875
vt 0 0.875
vt 0 1
vt 0.03125 1
vt 0.03125 0.875
vt 0 0.875
vt 0 1
vt 0.09375 1
vt 0.09375 0.96875
vt 0 0.96875
vt 0 1
vt 0.09375 1
vt 0.09375 0.96875
vt 0 0.96875
vn 0 0 -1
vn 1 0 0
vn 0 0 1
vn -1 0 0
vn 0 1 0
vn 0 -1 0
usemtl none
f 78/268/73 81/267/73 79/266/73 76/265/73
f 77/272/74 78/271/74 76/270/74 75/269/74
f 82/276/75 77/275/75 75/274/75 80/273/75
f 81/280/76 82/279/76 80/278/76 79/277/76
f 80/284/77 75/283/77 76/282/77 79/281/77
f 81/288/78 78/287/78 77/286/78 82/285/78
o cube
v 0.125 1.125 -0.125
v 0.125 1.125 -0.15625
v 0.125 1.0625 -0.125
v 0.125 1.0625 -0.15625
v -0.125 1.125 -0.15625
v -0.125 1.125 -0.125
v -0.125 1.0625 -0.15625
v -0.125 1.0625 -0.125
vt 0 1
vt 0.25 1
vt 0.25 0.9375
vt 0 0.9375
vt 0 1
vt 0.03125 1
vt 0.03125 0.9375
vt 0 0.9375
vt 0 1
vt 0.25 1
vt 0.25 0.9375
vt 0 0.9375
vt 0 1
vt 0.03125 1
vt 0.03125 0.9375
vt 0 0.9375
vt 0 1
vt 0.25 1
vt 0.25 0.96875
vt 0 0.96875
vt 0 1
vt 0.25 1
vt 0.25 0.96875
vt 0 0.96875
vn 0 0 -1
vn 1 0 0
vn 0 0 1
vn -1 0 0
vn 0 1 0
vn 0 -1 0
usemtl none
f 86/292/79 89/291/79 87/290/79 84/289/79
f 85/296/80 86/295/80 84/294/80 83/293/80
f 90/300/81 85/299/81 83/298/81 88/297/81
f 89/304/82 90/303/82 88/302/82 87/301/82
f 88/308/83 83/307/83 84/306/83 87/305/83
f 89/312/84 86/311/84 85/310/84 90/309/84
o cylinder
v 0.015625000000000236 1.0625 0
v -0.015624999999999762 1.0625 0
v 0.01562500000000025 1.1401650429449552 0.1875
v -0.015624999999999745 1.1401650429449552 0.1875
v 0.015625000000000278 1.25 0.07766504294495534
v -0.01562499999999972 1.25 0.07766504294495534
v 0.015625000000000278 1.25 -0.07766504294495533
v -0.015624999999999745 1.1401650429449552 -0.1875
v 0.01562500000000022 0.9848349570550448 -0.18750000000000003
v 0.015625000000000194 0.875 -0.07766504294495545
v -0.015624999999999804 0.875 -0.07766504294495545
v 0.015625000000000194 0.875 0.07766504294495537
v -0.015624999999999804 0.875 0.07766504294495537
v 0.01562500000000022 0.9848349570550445 0.18749999999999997
v -0.01562499999999978 0.9848349570550445 0.18749999999999997
v -0.01562499999999972 1.25 -0.07766504294495533
vt 0.20294756442551853 0.8564910784901842
vt 0.1435022764744155 1
vt 0 0.8564910784901845
vt 0 0.5
vt 0.155325 0.5
vt 0.155325 1
vt 0 1
vt 9.71445146547012e-17 0.7970524355744815
vt 0.14350892150981576 0.8564977235255846
vt 0 1
vt 0 1
vt 0 0.8446750000000001
vt 0.1875 0.9223375
vt 0 0.5
vt 0.155325 0.5
vt 0.155325 1
vt 0 1
vt 0 1
vt 0 0.8446750000000001
vt 0.1875 0.9223375
vt 0.1435089215098157 1
vt 0 0.9405547120488968
vt 0.14350892150981565 0.7970524355744815
vt 0 0.5
vt 0.155325 0.5
vt 0.155325 1
vt 0 1
vt 0 0.9999999999999999
vt 0.059445287951103154 0.8564910784901842
vt 0.20294756442551853 1
vt 0.155325 1
vt 0 1
vt 0.0776625 0.8125
vt 0 0.5
vt 0.155325 0.5
vt 0.155325 1
vt 0 1
vt 0 0.8125
vt 0.155325 0.8125
vt 0.0776625 1
vt 0.1875 0.8446750000000001
vt 0.1875 1
vt 0 0.9223375
vt 0 0.5
vt 0.155325 0.5
vt 0.155325 1
vt 0 1
vt 0.1875 0.8446750000000001
vt 0.1875 1
vt 0 0.9223375
vn 1 -2.220446049250313e-16 0
vn 1.5700924586837744e-16 0.7071067811865472 0.7071067811865479
vn -1 2.220446049250313e-16 0
vn 1 -2.220446049250313e-16 0
vn -2.220446049250313e-16 -1 0
vn -1 2.220446049250313e-16 0
vn 1 -2.220446049250313e-16 0
vn -1.5700924586837757e-16 -0.7071067811865478 0.7071067811865474
vn -1 2.220446049250313e-16 0
vn 1 -2.220446049250313e-16 0
vn -3.9676639504385056e-32 -1.7868769888726204e-16 1
vn -1 2.220446049250313e-16 0
vn 1 -2.220446049250313e-16 0
vn 2.220446049250313e-16 1 0
vn -1 2.220446049250313e-16 0
usemtl none
f 95/313/85 93/314/85 91/315/85
f 93/316/86 95/317/86 96/318/86 94/319/86
f 94/320/87 96/321/87 92/322/87
f 102/323/88 100/324/88 91/325/88
f 100/326/89 102/327/89 103/328/89 101/329/89
f 101/330/90 103/331/90 92/332/90
f 104/333/91 102/334/91 91/335/91
f 102/336/92 104/337/92 105/338/92 103/339/92
f 103/340/93 105/341/93 92/342/93
f 93/343/94 104/344/94 91/345/94
f 104/346/95 93/347/95 94/348/95 105/349/95
f 105/350/96 94/351/96 92/352/96
f 97/353/97 95/354/97 91/355/97
f 95/356/98 97/357/98 106/358/98 96/359/98
f 96/360/99 106/361/99 92/362/99
o cube
v 0.015625 1.25 0
v 0.015625 1.25 -0.125
v 0.015625 1.125 0
v 0.015625 1.125 -0.125
v -0.015625 1.25 0
v -0.015625 1.25 -0.125
v -0.015625 1.125 0
v -0.015625 1.125 -0.125
vt 0.375 1
vt 0 1
vt 0 0.5
vt 0.375 0.5
vt 0.375 0.5
vt 0.375 1
vt 0 1
vt 0 0.5
vt 0 0.625
vt 0.375 0.625
vt 0.375 1
vt 0 1
vt 0.375 0.625
vt 0.375 1
vt 0 1
vt 0 0.625
vt 0.375 0.5
vt 0.375 1
vt 0 1
vt 0 0.5
vt 0.375 1
vt 0 1
vt 0 0.5
vt 0.375 0.5
vn 1 0 0
vn -1 0 0
vn 0 1 0
vn 0 -1 0
vn 0 0 1
vn 0 0 -1
usemtl none
f 108/363/100 107/364/100 109/365/100 110/366/100
f 113/367/101 111/368/101 112/369/101 114/370/101
f 111/371/102 107/372/102 108/373/102 112/374/102
f 110/375/103 109/376/103 113/377/103 114/378/103
f 109/379/104 107/380/104 111/381/104 113/382/104
f 112/383/105 108/384/105 110/385/105 114/386/105
o cube
v 0.25 0.7822694046690031 0.08305787804858433
v 0.25 0.8955578780485842 0.030230595330996923
v 0.25 0.6237875565162407 -0.25680754209015944
v 0.25 0.7370760298958221 -0.30963482480774684
v 0.125 0.8955578780485842 0.030230595330996923
v 0.125 0.7822694046690031 0.08305787804858433
v 0.125 0.7370760298958221 -0.30963482480774684
v 0.125 0.6237875565162407 -0.25680754209015944
vt 0 1
vt 0.125 1
vt 0.125 0.625
vt 0 0.625
vt 0 1
vt 0.125 1
vt 0.125 0.625
vt 0 0.625
vt 0 1
vt 0.125 1
vt 0.125 0.625
vt 0 0.625
vt 0 1
vt 0.125 1
vt 0.125 0.625
vt 0 0.625
vt 0 1
vt 0.125 1
vt 0.125 0.875
vt 0 0.875
vt 0 1
vt 0.125 1
vt 0.125 0.875
vt 0 0.875
vn 0 0.90630778703665 -0.4226182617406993
vn 1 0 0
vn 0 -0.90630778703665 0.4226182617406993
vn -1 0 0
vn 0 0.4226182617406993 0.90630778703665
vn 0 -0.4226182617406993 -0.90630778703665
usemtl none
f 118/390/106 121/389/106 119/388/106 116/387/106
f 117/394/107 118/393/107 116/392/107 115/391/107
f 122/398/108 117/397/108 115/396/108 120/395/108
f 121/402/109 122/401/109 120/400/109 119/399/109
f 120/406/110 115/405/110 116/404/110 119/403/110
f 121/410/111 118/409/111 117/408/111 122/407/111
o cylinder
v 0.1875 0.125 -0.21875
v 0.1875 1.25 -0.21875
v 0.20044417382415922 0.125 -0.1875
v 0.20044417382415922 1.25 -0.1875
v 0.21875 0.125 -0.20580582617584076
v 0.21875 1.25 -0.20580582617584076
v 0.21875 0.125 -0.23169417382415924
v 0.21875 1.25 -0.23169417382415924
v 0.20044417382415924 0.125 -0.25
v 0.20044417382415924 1.25 -0.25
v 0.17455582617584078 0.125 -0.25
v 0.17455582617584078 1.25 -0.25
v 0.15625 0.125 -0.23169417382415924
v 0.15625 1.25 -0.23169417382415924
v 0.15625 0.125 -0.20580582617584076
v 0.15625 1.25 -0.20580582617584076
v 0.17455582617584076 0.125 -0.1875
v 0.17455582617584076 1.25 -0.1875
vt 0.033824594070919756 0.9760818464150307
vt 0.023917046079069255 1
vt 0 0.9760818464150307
vt 0 0.5
vt 0.0258875 0.5
vt 0.0258875 1
vt 0 1
vt 1.5612511283791264e-17 0.9661754059290802
vt 0.02391815358496929 0.9760829539209308
vt 0 1
vt 0.03125 0.9741125
vt 0.03125 1
vt 0 0.98705625
vt 0 0.5
vt 0.0258875 0.5
vt 0.0258875 1
vt 0 1
vt 0.03125 0.9741125
vt 0.03125 1
vt 0 0.98705625
vt 1.5612511283791264e-17 0.9661754059290802
vt 0.02391815358496929 0.9760829539209308
vt 0 1
vt 0 0.5
vt 0.0258875 0.5
vt 0.0258875 1
vt 0 1
vt 0.033824594070919756 0.9760818464150307
vt 0.023917046079069255 1
vt 0 0.9760818464150307
vt 0 0.96875
vt 0.0258875 0.96875
vt 0.01294375 1
vt 0 0.5
vt 0.0258875 0.5
vt 0.0258875 1
vt 0 1
vt 0.0258875 1
vt 0 1
vt 0.01294375 0.96875
vt 0 1
vt 0.0099075479918505 0.9760818464150307
vt 0.033824594070919756 1
vt 0 0.5
vt 0.0258875 0.5
vt 0.0258875 1
vt 0 1
vt 0.02391815358496928 1
vt 0 0.9900924520081494
vt 0.023918153584969275 0.9661754059290802
vt 0 1
vt 0 0.9741125
vt 0.03125 0.98705625
vt 0 0.5
vt 0.0258875 0.5
vt 0.0258875 1
vt 0 1
vt 0 1
vt 0 0.9741125
vt 0.03125 0.98705625
vt 0.02391815358496928 1
vt 0 0.9900924520081494
vt 0.023918153584969275 0.9661754059290802
vt 0 0.5
vt 0.0258875 0.5
vt 0.0258875 1
vt 0 1
vt 0 1
vt 0.0099075479918505 0.9760818464150307
vt 0.033824594070919756 1
vt 0.0258875 1
vt 0 1
vt 0.01294375 0.96875
vt 0 0.5
vt 0.0258875 0.5
vt 0.0258875 1
vt 0 1
vt 0 0.96875
vt 0.0258875 0.96875
vt 0.01294375 1
vn 0 -1 0
vn 0.707106781186547 0 0.707106781186548
vn 0 1 0
vn 0 -1 0
vn 1 0 0
vn 0 1 0
vn 0 -1 0
vn 0.7071067811865476 0 -0.7071067811865476
vn 0 1 0
vn 0 -1 0
vn 0 0 -1
vn 0 1 0
vn 0 -1 0
vn -0.707106781186547 0 -0.707106781186548
vn 0 1 0
vn 0 -1 0
vn -1 0 0
vn 0 1 0
vn 0 -1 0
vn -0.7071067811865476 0 0.7071067811865476
vn 0 1 0
vn 0 -1 0
vn 0 0 1
vn 0 1 0
usemtl none
f 127/411/112 125/412/112 123/413/112
f 125/414/113 127/415/113 128/416/113 126/417/113
f 126/418/114 128/419/114 124/420/114
f 129/421/115 127/422/115 123/423/115
f 127/424/116 129/425/116 130/426/116 128/427/116
f 128/428/117 130/429/117 124/430/117
f 131/431/118 129/432/118 123/433/118
f 129/434/119 131/435/119 132/436/119 130/437/119
f 130/438/120 132/439/120 124/440/120
f 133/441/121 131/442/121 123/443/121
f 131/444/122 133/445/122 134/446/122 132/447/122
f 132/448/123 134/449/123 124/450/123
f 135/451/124 133/452/124 123/453/124
f 133/454/125 135/455/125 136/456/125 134/457/125
f 134/458/126 136/459/126 124/460/126
f 137/461/127 135/462/127 123/463/127
f 135/464/128 137/465/128 138/466/128 136/467/128
f 136/468/129 138/469/129 124/470/129
f 139/471/130 137/472/130 123/473/130
f 137/474/131 139/475/131 140/476/131 138/477/131
f 138/478/132 140/479/132 124/480/132
f 125/481/133 139/482/133 123/483/133
f 139/484/134 125/485/134 126/486/134 140/487/134
f 140/488/135 126/489/135 124/490/135
o cube
v 0.3226174689163623 1.3125 -0.030935921676911393
v 0.37565047750535335 1.3125 -0.08396893026590244
v 0.3226174689163623 1.25 -0.030935921676911393
v 0.37565047750535335 1.25 -0.08396893026590244
v 0.013258252147247768 1.3125 -0.340295138446026
v 0.06629126073623884 1.3125 -0.393328147035017
v 0.013258252147247768 1.25 -0.340295138446026
v 0.06629126073623884 1.25 -0.393328147035017
vt 0.0625 1
vt 0 1
vt 0 0.5
vt 0.0625 0.5
vt 0.0625 0.5
vt 0.0625 1
vt 0 1
vt 0 0.5
vt 0 0.9375
vt 0.0625 0.9375
vt 0.0625 1
vt 0 1
vt 0.0625 0.9375
vt 0.0625 1
vt 0 1
vt 0 0.9375
vt 0.0625 0.5
vt 0.0625 1
vt 0 1
vt 0 0.5
vt 0.0625 1
vt 0 1
vt 0 0.5
vt 0.0625 0.5
vn 0.7071067811865475 0 0.7071067811865476
vn -0.7071067811865475 0 -0.7071067811865476
vn 0 1 0
vn 0 -1 0
vn -0.7071067811865476 0 0.7071067811865475
vn 0.7071067811865476 0 -0.7071067811865475
usemtl none
f 142/491/136 141/492/136 143/493/136 144/494/136
f 147/495/137 145/496/137 146/497/137 148/498/137
f 145/499/138 141/500/138 142/501/138 146/502/138
f 144/503/139 143/504/139 147/505/139 148/506/139
f 143/507/140 141/508/140 145/509/140 147/510/140
f 146/511/141 142/512/141 144/513/141 148/514/141
o plane
v 0.34692426451965025 1.2875 -0.11269514325160625
v 0.0905980563395268 1.2875 -0.36902135143172976
v 0.3469242645196502 0.8125000000000004 -0.11269514325160619
v 0.09059805633952672 0.8125000000000004 -0.36902135143172965
vt 0.0625 0.9375
vt 0.0625 1
vt 0 1
vt 0 0.9375
vn -0.7071067811865476 2.355138688025663e-16 0.7071067811865475
usemtl none
f 149/515/142 150/516/142 152/517/142 151/518/142