# Made in Blockbench 4.4.2
mtllib Knight.mtl

o cylinder
v 0 0 0
v 0 0.125 0
v 0.13397459621556132 0 0.49999999999999994
v 0.13397459621556132 0.125 0.49999999999999994
v 0.3660254037844386 0 0.36602540378443865
v 0.3660254037844386 0.125 0.36602540378443865
v 0.49999999999999994 0 0.13397459621556132
v 0.49999999999999994 0.125 0.13397459621556132
v 0.49999999999999994 0 -0.13397459621556138
v 0.49999999999999994 0.125 -0.13397459621556138
v 0.36602540378443865 0 -0.3660254037844386
v 0.36602540378443865 0.125 -0.3660254037844386
v 0.1339745962155615 0 -0.4999999999999999
v 0.1339745962155615 0.125 -0.4999999999999999
v -0.13397459621556113 0 -0.5
v -0.13397459621556113 0.125 -0.5
v -0.3660254037844386 0 -0.3660254037844387
v -0.3660254037844386 0.125 -0.3660254037844387
v -0.49999999999999994 0 -0.13397459621556126
v -0.49999999999999994 0.125 -0.13397459621556126
v -0.5 0 0.1339745962155611
v -0.5 0.125 0.1339745962155611
v -0.3660254037844387 0 0.36602540378443854
v -0.3660254037844387 0.125 0.36602540378443854
v -0.1339745962155613 0 0.49999999999999994
v -0.1339745962155613 0.125 0.49999999999999994
vt 0.5176375191676121 0.7411812404161939
vt 0.44828802160274145 1
vt 0 0.7411812404161939
vt 0 0.5
vt 0.26795 0.5
vt 0.26795 1
vt 0 1
vt 0 0.48236180528770867
vt 0.2588184218119073 0.5517125634363665
vt 8.326672684688674e-17 1
vt 0.5176381947122913 0.7411815781880927
vt 0.44828743656363346 1
vt 0 0.7411815781880928
vt 0 0.5
vt 0.26795 0.5
vt 0.26795 1
vt 0 1
vt 5.551115123125783e-17 0.48236248083238786
vt 0.25881875958380607 0.5517119783972586
vt 0 1
vt 0.5 0.73205
vt 0.5 1
vt 0 0.866025
vt 0 0.5
vt 0.26795 0.5
vt 0.26795 1
vt 0 1
vt 0.5 0.73205
vt 0.5 1
vt 0 0.866025
vt 5.551115123125783e-17 0.48236248083238786
vt 0.25881875958380607 0.5517119783972586
vt 0 1
vt 0 0.5
vt 0.26795 0.5
vt 0.26795 1
vt 0 1
vt 0.5176381947122913 0.7411815781880927
vt 0.44828743656363346 1
vt 0 0.7411815781880928
vt 0 0.48236180528770867
vt 0.2588184218119073 0.5517125634363665
vt 8.326672684688674e-17 1
vt 0 0.5
vt 0.26795 0.5
vt 0.26795 1
vt 0 1
vt 0.5176375191676121 0.7411812404161939
vt 0.44828802160274145 1
vt 0 0.7411812404161939
vt 0 0.5
vt 0.26795 0.5
vt 0.133975 1
vt 0 0.5
vt 0.26795 0.5
vt 0.26795 1
vt 0 1
vt 0.26795 1
vt 0 1
vt 0.133975 0.5
vt 0 1
vt 0.06934949756487069 0.7411812404161939
vt 0.5176375191676121 1
vt 0 0.5
vt 0.26795 0.5
vt 0.26795 1
vt 0 1
vt 0.2588184218119073 1
vt 0 0.9306492418513421
vt 0.2588184218119072 0.48236180528770867
vt 0 1
vt 0.06935075814865788 0.7411815781880927
vt 0.5176381947122913 0.9999999999999999
vt 0 0.5
vt 0.26795 0.5
vt 0.26795 1
vt 0 1
vt 0.258818759583806 1
vt 0 0.9306505024351293
vt 0.25881875958380607 0.48236248083238786
vt 0 1
vt 0 0.73205
vt 0.5 0.866025
vt 0 0.5
vt 0.26795 0.5
vt 0.26795 1
vt 0 1
vt 0 1
vt 0 0.73205
vt 0.5 0.866025
vt 0.258818759583806 1
vt 0 0.9306505024351293
vt 0.25881875958380607 0.48236248083238786
vt 0 0.5
vt 0.26795 0.5
vt 0.26795 1
vt 0 1
vt 0 1
vt 0.06935075814865788 0.7411815781880927
vt 0.5176381947122913 0.9999999999999999
vt 0.2588184218119073 1
vt 0 0.9306492418513421
vt 0.2588184218119072 0.48236180528770867
vt 0 0.5
vt 0.26795 0.5
vt 0.26795 1
vt 0 1
vt 0 1
vt 0.06934949756487069 0.7411812404161939
vt 0.5176375191676121 1
vt 0.26795 1
vt 0 1
vt 0.133975 0.5
vt 0 0.5
vt 0.26795 0.5
vt 0.26795 1
vt 0 1
vt 0 0.5
vt 0.26795 0.5
vt 0.133975 1
vn 0 -1 0
vn 0.4999999999999999 0 0.8660254037844388
vn 0 1 0
vn 0 -1 0
vn 0.8660254037844388 0 0.5
vn 0 1 0
vn 0 -1 0
vn 1 0 0
vn 0 1 0
vn 0 -1 0
vn 0.8660254037844388 0 -0.5
vn 0 1 0
vn 0 -1 0
vn 0.5000000000000001 0 -0.8660254037844388
vn 0 1 0
vn 0 -1 0
vn 4.143408735633879e-16 0 -1
vn 0 1 0
vn 0 -1 0
vn -0.4999999999999996 0 -0.8660254037844389
vn 0 1 0
vn 0 -1 0
vn -0.8660254037844389 0 -0.4999999999999998
vn 0 1 0
vn 0 -1 0
vn -1 0 -2.0717043678169412e-16
vn 0 1 0
vn 0 -1 0
vn -0.8660254037844389 0 0.4999999999999996
vn 0 1 0
vn 0 -1 0
vn -0.4999999999999999 0 0.8660254037844386
vn 0 1 0
vn 0 -1 0
vn 0 0 1
vn 0 1 0
usemtl none
f 5/1/1 3/2/1 1/3/1
f 3/4/2 5/5/2 6/6/2 4/7/2
f 4/8/3 6/9/3 2/10/3
f 7/11/4 5/12/4 1/13/4
f 5/14/5 7/15/5 8/16/5 6/17/5
f 6/18/6 8/19/6 2/20/6
f 9/21/7 7/22/7 1/23/7
f 7/24/8 9/25/8 10/26/8 8/27/8
f 8/28/9 10/29/9 2/30/9
f 11/31/10 9/32/10 1/33/10
f 9/34/11 11/35/11 12/36/11 10/37/11
f 10/38/12 12/39/12 2/40/12
f 13/41/13 11/42/13 1/43/13
f 11/44/14 13/45/14 14/46/14 12/47/14
f 12/48/15 14/49/15 2/50/15
f 15/51/16 13/52/16 1/53/16
f 13/54/17 15/55/17 16/56/17 14/57/17
f 14/58/18 16/59/18 2/60/18
f 17/61/19 15/62/19 1/63/19
f 15/64/20 17/65/20 18/66/20 16/67/20
f 16/68/21 18/69/21 2/70/21
f 19/71/22 17/72/22 1/73/22
f 17/74/23 19/75/23 20/76/23 18/77/23
f 18/78/24 20/79/24 2/80/24
f 21/81/25 19/82/25 1/83/25
f 19/84/26 21/85/26 22/86/26 20/87/26
f 20/88/27 22/89/27 2/90/27
f 23/91/28 21/92/28 1/93/28
f 21/94/29 23/95/29 24/96/29 22/97/29
f 22/98/30 24/99/30 2/100/30
f 25/101/31 23/102/31 1/103/31
f 23/104/32 25/105/32 26/106/32 24/107/32
f 24/108/33 26/109/33 2/110/33
f 3/111/34 25/112/34 1/113/34
f 25/114/35 3/115/35 4/116/35 26/117/35
f 26/118/36 4/119/36 2/120/36
o cube
v 0.125 1 -0.125
v 0.125 1 -0.15625
v 0.125 0.875 -0.125
v 0.125 0.875 -0.15625
v 0.03125 1 -0.15625
v 0.03125 1 -0.125
v 0.03125 0.875 -0.15625
v 0.03125 0.875 -0.125
vt 0 1
vt 0.09375 1
vt 0.09375 0.875
vt 0 0.875
vt 0 1
vt 0.03125 1
vt 0.03125 0.875
vt 0 0.875
vt 0 1
vt 0.09375 1
vt 0.09375 0.875
vt 0 0.875
vt 0 1
vt 0.03125 1
vt 0.03125 0.875
vt 0 0.875
vt 0 1
vt 0.09375 1
vt 0.09375 0.96875
vt 0 0.96875
vt 0 1
vt 0.09375 1
vt 0.09375 0.96875
vt 0 0.96875
vn 0 0 -1
vn 1 0 0
vn 0 0 1
vn -1 0 0
vn 0 1 0
vn 0 -1 0
usemtl none
f 30/124/37 33/123/37 31/122/37 28/121/37
f 29/128/38 30/127/38 28/126/38 27/125/38
f 34/132/39 29/131/39 27/130/39 32/129/39
f 33/136/40 34/135/40 32/134/40 31/133/40
f 32/140/41 27/139/41 28/138/41 31/137/41
f 33/144/42 30/143/42 29/142/42 34/141/42
o cube
v 0.125 0.5 0.0625
v 0.125 0.5 -0.0625
v 0.125 0.125 0.0625
v 0.125 0.125 -0.0625
v 0 0.5 -0.0625
v 0 0.5 0.0625
v 0 0.125 -0.0625
v 0 0.125 0.0625
vt 0 1
vt 0.125 1
vt 0.125 0.625
vt 0 0.625
vt 0 1
vt 0.125 1
vt 0.125 0.625
vt 0 0.625
vt 0 1
vt 0.125 1
vt 0.125 0.625
vt 0 0.625
vt 0 1
vt 0.125 1
vt 0.125 0.625
vt 0 0.625
vt 0 1
vt 0.125 1
vt 0.125 0.875
vt 0 0.875
vt 0 1
vt 0.125 1
vt 0.125 0.875
vt 0 0.875
vn 0 0 -1
vn 1 0 0
vn 0 0 1
vn -1 0 0
vn 0 1 0
vn 0 -1 0
usemtl none
f 38/148/43 41/147/43 39/146/43 36/145/43
f 37/152/44 38/151/44 36/150/44 35/149/44
f 42/156/45 37/155/45 35/154/45 40/153/45
f 41/160/46 42/159/46 40/158/46 39/157/46
f 40/164/47 35/163/47 36/162/47 39/161/47
f 41/168/48 38/167/48 37/166/48 42/165/48
o cube
v 0 0.5 0.0625
v 0 0.5 -0.0625
v 0 0.125 0.0625
v 0 0.125 -0.0625
v -0.125 0.5 -0.0625
v -0.125 0.5 0.0625
v -0.125 0.125 -0.0625
v -0.125 0.125 0.0625
vt 0 1
vt 0.125 1
vt 0.125 0.625
vt 0 0.625
vt 0 1
vt 0.125 1
vt 0.125 0.625
vt 0 0.625
vt 0 1
vt 0.125 1
vt 0.125 0.625
vt 0 0.625
vt 0 1
vt 0.125 1
vt 0.125 0.625
vt 0 0.625
vt 0 1
vt 0.125 1
vt 0.125 0.875
vt 0 0.875
vt 0 1
vt 0.125 1
vt 0.125 0.875
vt 0 0.875
vn 0 0 -1
vn 1 0 0
vn 0 0 1
vn -1 0 0
vn 0 1 0
vn 0 -1 0
usemtl none
f 46/172/49 49/171/49 47/170/49 44/169/49
f 45/176/50 46/175/50 44/174/50 43/173/50
f 50/180/51 45/179/51 43/178/51 48/177/51
f 49/184/52 50/183/52 48/182/52 47/181/52
f 48/188/53 43/187/53 44/186/53 47/185/53
f 49/192/54 46/191/54 45/190/54 50/189/54
o cube
v 0.125 0.875 0.0625
v 0.125 0.875 -0.0625
v 0.125 0.5 0.0625
v 0.125 0.5 -0.0625
v -0.125 0.875 -0.0625
v -0.125 0.875 0.0625
v -0.125 0.5 -0.0625
v -0.125 0.5 0.0625
vt 0 1
vt 0.25 1
vt 0.25 0.625
vt 0 0.625
vt 0 1
vt 0.125 1
vt 0.125 0.625
vt 0 0.625
vt 0 1
vt 0.25 1
vt 0.25 0.625
vt 0 0.625
vt 0 1
vt 0.125 1
vt 0.125 0.625
vt 0 0.625
vt 0 1
vt 0.25 1
vt 0.25 0.875
vt 0 0.875
vt 0 1
vt 0.25 1
vt 0.25 0.875
vt 0 0.875
vn 0 0 -1
vn 1 0 0
vn 0 0 1
vn -1 0 0
vn 0 1 0
vn 0 -1 0
usemtl none
f 54/196/55 57/195/55 55/194/55 52/193/55
f 53/200/56 54/199/56 52/198/56 51/197/56
f 58/204/57 53/203/57 51/202/57 56/201/57
f 57/208/58 58/207/58 56/206/58 55/205/58
f 56/212/59 51/211/59 52/210/59 55/209/59
f 57/216/60 54/215/60 53/214/60 58/213/60
o cube
v -0.125 0.875 0.0625
v -0.125 0.875 -0.0625
v -0.125 0.5 0.0625
v -0.125 0.5 -0.0625
v -0.25 0.875 -0.0625
v -0.25 0.875 0.0625
v -0.25 0.5 -0.0625
v -0.25 0.5 0.0625
vt 0 1
vt 0.125 1
vt 0.125 0.625
vt 0 0.625
vt 0 1
vt 0.125 1
vt 0.125 0.625
vt 0 0.625
vt 0 1
vt 0.125 1
vt 0.125 0.625
vt 0 0.625
vt 0 1
vt 0.125 1
vt 0.125 0.625
vt 0 0.625
vt 0 1
vt 0.125 1
vt 0.125 0.875
vt 0 0.875
vt 0 1
vt 0.125 1
vt 0.125 0.875
vt 0 0.875
vn 0 0 -1
vn 1 0 0
vn 0 0 1
vn -1 0 0
vn 0 1 0
vn 0 -1 0
usemtl none
f 62/220/61 65/219/61 63/218/61 60/217/61
f 61/224/62 62/223/62 60/222/62 59/221/62
f 66/228/63 61/227/63 59/226/63 64/225/63
f 65/232/64 66/231/64 64/230/64 63/229/64
f 64/236/65 59/235/65 60/234/65 63/233/65
f 65/240/66 62/239/66 61/238/66 66/237/66
o cube
v 0.25 0.7822694046690031 0.08305787804858433
v 0.25 0.8955578780485843 0.030230595330996923
v 0.25 0.6237875565162408 -0.25680754209015944
v 0.25 0.7370760298958221 -0.30963482480774684
v 0.125 0.8955578780485843 0.030230595330996923
v 0.125 0.7822694046690031 0.08305787804858433
v 0.125 0.7370760298958221 -0.30963482480774684
v 0.125 0.6237875565162408 -0.25680754209015944
vt 0 1
vt 0.125 1
vt 0.125 0.625
vt 0 0.625
vt 0 1
vt 0.125 1
vt 0.125 0.625
vt 0 0.625
vt 0 1
vt 0.125 1
vt 0.125 0.625
vt 0 0.625
vt 0 1
vt 0.125 1
vt 0.125 0.625
vt 0 0.625
vt 0 1
vt 0.125 1
vt 0.125 0.875
vt 0 0.875
vt 0 1
vt 0.125 1
vt 0.125 0.875
vt 0 0.875
vn 0 0.90630778703665 -0.4226182617406993
vn 1 0 0
vn 0 -0.90630778703665 0.4226182617406993
vn -1 0 0
vn 0 0.4226182617406993 0.90630778703665
vn 0 -0.4226182617406993 -0.90630778703665
usemtl none
f 70/244/67 73/243/67 71/242/67 68/241/67
f 69/248/68 70/247/68 68/246/68 67/245/68
f 74/252/69 69/251/69 67/250/69 72/249/69
f 73/256/70 74/255/70 72/254/70 71/253/70
f 72/260/71 67/259/71 68/258/71 71/257/71
f 73/264/72 70/263/72 69/262/72 74/261/72
o cube
v 0.125 1.125 0.125
v 0.125 1.125 -0.125
v 0.125 0.875 0.125
v 0.125 0.875 -0.125
v -0.125 1.125 -0.125
v -0.125 1.125 0.125
v -0.125 0.875 -0.125
v -0.125 0.875 0.125
vt 0 1
vt 0.25 1
vt 0.25 0.75
vt 0 0.75
vt 0 1
vt 0.25 1
vt 0.25 0.75
vt 0 0.75
vt 0 1
vt 0.25 1
vt 0.25 0.75
vt 0 0.75
vt 0 1
vt 0.25 1
vt 0.25 0.75
vt 0 0.75
vt 0 1
vt 0.25 1
vt 0.25 0.75
vt 0 0.75
vt 0 1
vt 0.25 1
vt 0.25 0.75
vt 0 0.75
vn 0 0 -1
vn 1 0 0
vn 0 0 1
vn -1 0 0
vn 0 1 0
vn 0 -1 0
usemtl none
f 78/268/73 81/267/73 79/266/73 76/265/73
f 77/272/74 78/271/74 76/270/74 75/269/74
f 82/276/75 77/275/75 75/274/75 80/273/75
f 81/280/76 82/279/76 80/278/76 79/277/76
f 80/284/77 75/283/77 76/282/77 79/281/77
f 81/288/78 78/287/78 77/286/78 82/285/78
o pyramid
v 0.18749999940192003 1.2939760116770085 -0.5057659519074559
v 0.23437500096240377 0.9909445977675947 -0.4161809215577035
v 0.14062500096240377 0.9909445966503261 -0.41618092370395654
v 0.23437499854505972 1.0305650598057854 -0.3312145665230175
v 0.14062499854505972 1.0305650586885169 -0.3312145686692707
vt 1 0
vt 1 1
vt 0 1
vt 0 0
vt 0 0.29288749999999997
vt 1 0.29288749999999997
vt 0.5 1
vt 0 0.29288749999999997
vt 1 0.29288749999999997
vt 0.5 1
vt 0 0.29288749999999997
vt 1 0.29288749999999997
vt 0.5 1
vt 0 0.29288749999999997
vt 1 0.29288749999999997
vt 0.5 1
vn 1.1257975750198317e-9 -0.9063077870366495 0.42261826174070033
vn 2.53327256587025e-8 -0.28350045479816327 -0.9589721018513699
vn 0.9889363527012959 0.13444211940890521 -0.06269136172312577
vn -0.9889363530352985 0.1344420958375433 -0.06269140700329053
vn -2.566672830307493e-8 0.5523846700446118 0.8335893331249535
usemtl none
f 85/289/79 84/290/79 86/291/79 87/292/79
f 84/293/80 85/294/80 83/295/80
f 86/296/81 84/297/81 83/298/81
f 85/299/82 87/300/82 83/301/82
f 87/302/83 86/303/83 83/304/83
o cylinder
v 0.187500000809167 0.16109127788119673 0.022506875268419463
v 0.18749999975373177 1.0107548282280556 -0.37369774511348697
v 0.21875000102507547 0.1575525213179926 0.014917987245383818
v 0.21874999996964023 1.0072160716648515 -0.38128663313652267
v 0.21037658913556728 0.1514232144100594 0.0017736461856996955
v 0.21037658808013204 1.0010867647569182 -0.3944309741962069
v 0.1958734138784209 0.14788445730159028 -0.005815242884780247
v 0.19587341282298565 0.9975480076484492 -0.4020198632666867
v 0.17912658935147574 0.14788445710200945 -0.0058152432681713995
v 0.1791265882960405 0.9975480074488684 -0.4020198636500779
v 0.16462341366251249 0.15142321386479443 0.0017736451382554808
v 0.16462341260707725 1.0010867642116534 -0.3944309752436511
v 0.15625000102507547 0.1575525205731468 0.014917985814548368
v 0.15624999996964023 1.0072160709200058 -0.3812866345673581
v 0.15625000059325855 0.16463003444440089 0.030095763291455135
v 0.15624999953782331 1.0142935847912598 -0.3661088570904514
v 0.16462341248276668 0.1707593413523341 0.04324010435113926
v 0.16462341142733145 1.020422891699193 -0.3529645160307673
v 0.17912658773991313 0.1742980984608032 0.050828993421619145
v 0.1791265866844779 1.0239616488076622 -0.34537562696028734
v 0.19587341226685823 0.17429809866038404 0.05082899380501035
v 0.195873411211423 1.023961649007243 -0.34537562657689613
v 0.21037658795582154 0.17075934189759906 0.0432401053985835
v 0.2103765869003863 1.0204228922444578 -0.35296451498332304
v 0.21875000059325855 0.16463003518924665 0.03009576472229053
v 0.21874999953782331 1.0142935855361057 -0.36610885565961593
vt 0.06470910931333393 0.9676454453433331
vt 0.056033792991651475 1
vt 0 0.9676454453433331
vt 0 0.9375
vt 0.0334875 0.9375
vt 0.0334875 1
vt 0 1
vt 0 0.9352960344023452
vt 0.032357126718959295 0.9439617525379477
vt 1.0408340855860843e-17 1
vt 0.06470396559765483 0.9676428732810407
vt 0.0560382474620523 1
vt 0 0.9676428732810407
vt 0 0.9375
vt 0.0334875 0.9375
vt 0.0334875 1
vt 0 1
vt 0 0.935290890686666
vt 0.032354554656666965 0.9439662070083485
vt 0 1
vt 0.0625 0.9665125
vt 0.0625 1
vt 0 0.9832562499999999
vt 0 0.9375
vt 0.0334875 0.9375
vt 0.0334875 1
vt 0 1
vt 0.0625 0.9665125
vt 0.0625 1
vt 0 0.9832562499999999
vt 0 0.935290890686666
vt 0.032354554656666965 0.9439662070083485
vt 0 1
vt 0 0.9375
vt 0.0334875 0.9375
vt 0.0334875 1
vt 0 1
vt 0.06470396559765483 0.9676428732810407
vt 0.0560382474620523 1
vt 0 0.9676428732810407
vt 0 0.9352960344023452
vt 0.032357126718959295 0.9439617525379477
vt 1.0408340855860843e-17 1
vt 0 0.9375
vt 0.0334875 0.9375
vt 0.0334875 1
vt 0 1
vt 0.06470910931333393 0.9676454453433331
vt 0.056033792991651475 1
vt 0 0.9676454453433331
vt 0 0.9375
vt 0.0334875 0.9375
vt 0.01674375 1
vt 0 0.9375
vt 0.0334875 0.9375
vt 0.0334875 1
vt 0 1
vt 0.0334875 1
vt 0 1
vt 0.01674375 0.9375
vt 0 1
vt 0.008675316321682454 0.9676454453433331
vt 0.06470910931333393 1
vt 0 0.9375
vt 0.0334875 0.9375
vt 0.0334875 1
vt 0 1
vt 0.03235712671895928 1
vt 0 0.9913342818643974
vt 0.03235712671895931 0.9352960344023452
vt 0 1
vt 0.008665718135602532 0.9676428732810407
vt 0.06470396559765483 1
vt 0 0.9375
vt 0.0334875 0.9375
vt 0.0334875 1
vt 0 1
vt 0.032354554656666965 1
vt 0 0.9913246836783175
vt 0.032354554656666965 0.935290890686666
vt 0 1
vt 0 0.9665125
vt 0.0625 0.9832562499999999
vt 0 0.9375
vt 0.0334875 0.9375
vt 0.0334875 1
vt 0 1
vt 0 1
vt 0 0.9665125
vt 0.0625 0.9832562499999999
vt 0.032354554656666965 1
vt 0 0.9913246836783175
vt 0.032354554656666965 0.935290890686666
vt 0 0.9375
vt 0.0334875 0.9375
vt 0.0334875 1
vt 0 1
vt 0 1
vt 0.008665718135602532 0.9676428732810407
vt 0.06470396559765483 1
vt 0.03235712671895928 1
vt 0 0.9913342818643974
vt 0.03235712671895931 0.9352960344023452
vt 0 0.9375
vt 0.0334875 0.9375
vt 0.0334875 1
vt 0 1
vt 0 1
vt 0.008675316321682454 0.9676454453433331
vt 0.06470910931333393 1
vt 0.0334875 1
vt 0 1
vt 0.01674375 0.9375
vt 0 0.9375
vt 0.0334875 0.9375
vt 0.0334875 1
vt 0 1
vt 0 0.9375
vt 0.0334875 0.9375
vt 0.01674375 1
vn 1.1257975750198317e-9 -0.9063077870366495 0.42261826174070033
vn 0.8660254166769398 -0.21130912054946432 -0.45315387369208776
vn -1.1257975750198317e-9 0.9063077870366495 -0.42261826174070033
vn 1.1257975750198317e-9 -0.9063077870366495 0.42261826174070033
vn 0.5000000223304679 -0.36599814481190124 -0.7848855557747119
vn -1.1257975750198317e-9 0.9063077870366495 -0.42261826174070033
vn 1.1257975750198317e-9 -0.9063077870366495 0.42261826174070033
vn 2.57850031571088e-8 -0.4226182617407001 -0.9063077870366493
vn -1.1257975750198317e-9 0.9063077870366495 -0.42261826174070033
vn 1.1257975750198317e-9 -0.9063077870366495 0.42261826174070033
vn -0.4999999776695338 -0.36599815672943314 -0.7848855786680776
vn -1.1257975750198317e-9 0.9063077870366495 -0.42261826174070033
vn 1.1257975750198317e-9 -0.9063077870366495 0.42261826174070033
vn -0.8660253908919359 -0.2113091411912365 -0.4531539133445631
vn -1.1257975750198317e-9 0.9063077870366495 -0.42261826174070033
vn 1.1257975750198317e-9 -0.9063077870366495 0.42261826174070033
vn -0.9999999999999998 -1.1917532329006714e-8 -2.2893366505631424e-8
vn -1.1257975750198317e-9 0.9063077870366495 -0.42261826174070033
vn 1.1257975750198317e-9 -0.9063077870366495 0.42261826174070033
vn -0.866025416676941 0.21130912054946363 0.45315387369208626
vn -1.1257975750198317e-9 0.9063077870366495 -0.42261826174070033
vn 1.1257975750198317e-9 -0.9063077870366495 0.42261826174070033
vn -0.5000000223304665 0.36599814481190157 0.7848855557747126
vn -1.1257975750198317e-9 0.9063077870366495 -0.42261826174070033
vn 1.1257975750198317e-9 -0.9063077870366495 0.42261826174070033
vn -2.57850031571088e-8 0.4226182617407001 0.9063077870366493
vn -1.1257975750198317e-9 0.9063077870366495 -0.42261826174070033
vn 1.1257975750198317e-9 -0.9063077870366495 0.42261826174070033
vn 0.49999997766953114 0.3659981567294338 0.7848855786680791
vn -1.1257975750198317e-9 0.9063077870366495 -0.42261826174070033
vn 1.1257975750198317e-9 -0.9063077870366495 0.42261826174070033
vn 0.8660253908919368 0.2113091411912359 0.45315391334456184
vn -1.1257975750198317e-9 0.9063077870366495 -0.42261826174070033
vn 1.1257975750198317e-9 -0.9063077870366495 0.42261826174070033
vn 0.9999999999999998 1.1917532329006714e-8 2.2893366505631424e-8
vn -1.1257975750198317e-9 0.9063077870366495 -0.42261826174070033
usemtl none
f 92/305/84 90/306/84 88/307/84
f 90/308/85 92/309/85 93/310/85 91/311/85
f 91/312/86 93/313/86 89/314/86
f 94/315/87 92/316/87 88/317/87
f 92/318/88 94/319/88 95/320/88 93/321/88
f 93/322/89 95/323/89 89/324/89
f 96/325/90 94/326/90 88/327/90
f 94/328/91 96/329/91 97/330/91 95/331/91
f 95/332/92 97/333/92 89/334/92
f 98/335/93 96/336/93 88/337/93
f 96/338/94 98/339/94 99/340/94 97/341/94
f 97/342/95 99/343/95 89/344/95
f 100/345/96 98/346/96 88/347/96
f 98/348/97 100/349/97 101/350/97 99/351/97
f 99/352/98 101/353/98 89/354/98
f 102/355/99 100/356/99 88/357/99
f 100/358/100 102/359/100 103/360/100 101/361/100
f 101/362/101 103/363/101 89/364/101
f 104/365/102 102/366/102 88/367/102
f 102/368/103 104/369/103 105/370/103 103/371/103
f 103/372/104 105/373/104 89/374/104
f 106/375/105 104/376/105 88/377/105
f 104/378/106 106/379/106 107/380/106 105/381/106
f 105/382/107 107/383/107 89/384/107
f 108/385/108 106/386/108 88/387/108
f 106/388/109 108/389/109 109/390/109 107/391/109
f 107/392/110 109/393/110 89/394/110
f 110/395/111 108/396/111 88/397/111
f 108/398/112 110/399/112 111/400/112 109/401/112
f 109/402/113 111/403/113 89/404/113
f 112/405/114 110/406/114 88/407/114
f 110/408/115 112/409/115 113/410/115 111/411/115
f 111/412/116 113/413/116 89/414/116
f 90/415/117 112/416/117 88/417/117
f 112/418/118 90/419/118 91/420/118 113/421/118
f 113/422/119 91/423/119 89/424/119
o cube
v -0.03125 1 -0.125
v -0.03125 1 -0.15625
v -0.03125 0.875 -0.125
v -0.03125 0.875 -0.15625
v -0.125 1 -0.15625
v -0.125 1 -0.125
v -0.125 0.875 -0.15625
v -0.125 0.875 -0.125
vt 0 1
vt 0.09375 1
vt 0.09375 0.875
vt 0 0.875
vt 0 1
vt 0.03125 1
vt 0.03125 0.875
vt 0 0.875
vt 0 1
vt 0.09375 1
vt 0.09375 0.875
vt 0 0.875
vt 0 1
vt 0.03125 1
vt 0.03125 0.875
vt 0 0.875
vt 0 1
vt 0.09375 1
vt 0.09375 0.96875
vt 0 0.96875
vt 0 1
vt 0.09375 1
vt 0.09375 0.96875
vt 0 0.96875
vn 0 0 -1
vn 1 0 0
vn 0 0 1
vn -1 0 0
vn 0 1 0
vn 0 -1 0
usemtl none
f 117/428/120 120/427/120 118/426/120 115/425/120
f 116/432/121 117/431/121 115/430/121 114/429/121
f 121/436/122 116/435/122 114/434/122 119/433/122
f 120/440/123 121/439/123 119/438/123 118/437/123
f 119/444/124 114/443/124 115/442/124 118/441/124
f 120/448/125 117/447/125 116/446/125 121/445/125
o cube
v 0.125 1.125 -0.125
v 0.125 1.125 -0.15625
v 0.125 1.0625 -0.125
v 0.125 1.0625 -0.15625
v -0.125 1.125 -0.15625
v -0.125 1.125 -0.125
v -0.125 1.0625 -0.15625
v -0.125 1.0625 -0.125
vt 0 1
vt 0.25 1
vt 0.25 0.9375
vt 0 0.9375
vt 0 1
vt 0.03125 1
vt 0.03125 0.9375
vt 0 0.9375
vt 0 1
vt 0.25 1
vt 0.25 0.9375
vt 0 0.9375
vt 0 1
vt 0.03125 1
vt 0.03125 0.9375
vt 0 0.9375
vt 0 1
vt 0.25 1
vt 0.25 0.96875
vt 0 0.96875
vt 0 1
vt 0.25 1
vt 0.25 0.96875
vt 0 0.96875
vn 0 0 -1
vn 1 0 0
vn 0 0 1
vn -1 0 0
vn 0 1 0
vn 0 -1 0
usemtl none
f 125/452/126 128/451/126 126/450/126 123/449/126
f 124/456/127 125/455/127 123/454/127 122/453/127
f 129/460/128 124/459/128 122/458/128 127/457/128
f 128/464/129 129/463/129 127/462/129 126/461/129
f 127/468/130 122/467/130 123/466/130 126/465/130
f 128/472/131 125/471/131 124/470/131 129/469/131